<?xml version="1.0" encoding="UTF-8" standalone="no"?>
<svg
   xmlns:dc="http://purl.org/dc/elements/1.1/"
   xmlns:cc="http://creativecommons.org/ns#"
   xmlns:rdf="http://www.w3.org/1999/02/22-rdf-syntax-ns#"
   xmlns:svg="http://www.w3.org/2000/svg"
   xmlns="http://www.w3.org/2000/svg"
   viewBox="0 0 6096 1766.1333"
   height="1766.1333"
   width="6096"
   xml:space="preserve"
   id="svg2"
   version="1.1"><metadata
     id="metadata8"><rdf:RDF><cc:Work
         rdf:about=""><dc:format>image/svg+xml</dc:format><dc:type
           rdf:resource="http://purl.org/dc/dcmitype/StillImage" /></cc:Work></rdf:RDF></metadata><defs
     id="defs6" /><g
     transform="matrix(1.3333333,0,0,-1.3333333,0,1766.1333)"
     id="g10"><g
       transform="scale(0.1)"
       id="g12"><g
         transform="scale(1.06639)"
         id="g14"><path
           id="path16"
           style="fill:#fff;fill-opacity:1;fill-rule:nonzero;stroke:none"
           d="m 15741.9,3298.31 c 107.4,0 208,-14.38 302.1,-43.16 93.9,-28.77 178.4,-73.85 253.1,-135.21 l -132.3,-207.11 c -51.8,44.07 -116.5,78.58 -194.2,103.53 -77.7,24.94 -153.9,37.42 -228.7,37.42 -55.7,0 -110.3,-8.63 -164,-25.89 -53.7,-17.26 -101.6,-44.17 -143.8,-80.55 -42.2,-36.48 -76.3,-83.46 -102.1,-140.95 -25.9,-57.57 -38.9,-127.62 -38.9,-210.05 v -618.45 c 0,-80.55 13.4,-150.13 40.3,-208.64 26.8,-58.52 61.3,-105.97 103.6,-142.35 42.1,-36.48 89.5,-63.3 142.3,-80.56 52.7,-17.25 105.1,-25.88 156.8,-25.88 74.9,0 151.1,10.51 228.7,31.61 77.7,21.09 147.2,56.54 208.6,106.43 l 126.6,-204.24 c -61.4,-49.89 -140.9,-92 -238.8,-126.6 -97.8,-34.51 -204.2,-51.76 -319.3,-51.76 -96,0 -187.5,14.91 -274.7,44.63 -87.3,29.73 -163.8,72.31 -229.6,128.01 -65.7,55.6 -118,123.69 -156.8,204.24 -38.7,80.55 -58.1,171.61 -58.1,273.26 v 724.97 c 0,99.68 19.9,189.42 59.6,269.04 39.7,79.52 92.5,147.62 158.2,204.2 65.8,56.56 141.8,99.7 228.1,129.47 86.3,29.71 177.3,44.59 273.3,44.59" /></g><g
         transform="scale(1.21243)"
         id="g18"><path
           id="path20"
           style="fill:#fff;fill-opacity:1;fill-rule:nonzero;stroke:none"
           d="m 15647.2,2200.13 v -339.07 c 0,-129.91 -10.3,-237.87 -30.7,-323.9 -20.5,-86.03 -48.7,-156.87 -84.5,-212.55 -35.8,-55.67 -78.7,-100.37 -128.7,-134.11 -49.9,-33.73 -104.4,-62.35 -163.5,-85.94 l -88.5,174.53 c 47.2,21.94 88.5,44.7 124,68.37 35.4,23.59 64.5,56 87.2,97.41 22.8,41.24 39.6,95.67 50.7,163.14 11,67.47 16.4,156.05 16.4,265.67 v 518.71 H 16300 V 1139.94 h -217.6 v 1060.19 h -435.2" /></g><g
         transform="scale(1.34041)"
         id="g22"><path
           id="path24"
           style="fill:#fff;fill-opacity:1;fill-rule:nonzero;stroke:none"
           d="m 16103.2,1726.11 c 0,48.49 -7.2,89.9 -21.8,124 -14.5,34.16 -33.6,61.84 -57.2,83.03 -23.7,21.26 -50.3,36.4 -80.1,45.51 -29.7,9.1 -59.9,13.72 -90.4,13.72 -32.1,0 -62.9,-4.62 -92.6,-13.72 -29.8,-9.11 -56.5,-24.25 -80.2,-45.51 -23.7,-21.19 -42.7,-48.87 -57.2,-83.03 -14.5,-34.1 -21.8,-75.51 -21.8,-124 v -254.84 c 0,-98.63 22.6,-167.64 67.5,-207.11 45,-39.39 106.5,-59.08 184.3,-59.08 30.5,0 60.7,4.47 90.4,13.65 29.8,9.03 56.4,24.25 80.1,45.43 23.6,21.27 42.7,48.95 57.2,83.11 14.6,34.1 21.8,75.43 21.8,124 z m 196.8,-294.46 c 0,-65.65 -11.5,-123.99 -34.4,-175.09 -23,-51.18 -54.7,-94.23 -95.3,-129.37 -40.5,-35.06 -87.9,-61.77 -142.2,-80.05 -54.3,-18.35 -113.6,-27.45 -177.8,-27.45 -65.8,0 -125.9,9.1 -180.1,27.45 -54.4,18.28 -101,44.99 -140,80.05 -39.1,35.14 -69.6,78.19 -91.8,129.37 -22.2,51.1 -33.3,109.44 -33.3,175.09 v 82.36 h -167 V 1031.1 h -196.9 v 1132.86 h 196.9 v -473.73 h 167 v 70.95 c 0,65.57 11.1,123.99 33.3,175.09 22.2,51.11 53.6,94.6 94.1,130.48 40.5,35.81 87.9,63.27 142.2,82.37 54.4,19.1 113.6,28.65 177.9,28.65 139.1,0 248.6,-36.64 328.1,-109.9 79.5,-73.26 119.3,-175.46 119.3,-306.69 v -329.53" /></g><g
         transform="scale(1.4396)"
         id="g26"><path
           id="path28"
           style="fill:#fff;fill-opacity:1;fill-rule:nonzero;stroke:none"
           d="m 16116.8,1551.13 c 0,92.04 -22.8,156.5 -68.3,193.32 -45.5,36.82 -107.3,55.22 -185.4,55.22 -29.8,0 -59.6,-4.93 -89.5,-14.86 -29.8,-9.94 -57.2,-25.15 -82,-45.64 -24.9,-20.56 -45.1,-47.17 -60.7,-79.74 -15.7,-32.51 -23.5,-71.48 -23.5,-116.77 v -172.07 c 0,-45.36 6.7,-83.98 20.3,-115.79 13.4,-31.89 31.6,-57.73 54.3,-77.52 22.7,-19.87 49.7,-34.04 81,-42.52 31.2,-8.54 64.6,-12.71 100.1,-12.71 32.7,0 64.3,4.17 94.9,12.71 30.5,8.48 57.5,22.65 81,42.52 23.4,19.79 42.2,45.63 56.4,77.52 14.2,31.81 21.4,70.43 21.4,115.79 z m -487.5,321.9 c 18.4,18.68 39.8,34.52 64,47.44 24.2,12.99 48.4,23.41 72.7,31.33 24.1,7.92 47.3,13.27 69.4,16.18 22,2.85 40.9,4.31 56.6,4.31 133.8,0 235.3,-34.17 304.4,-102.53 69,-68.35 103.6,-163.72 103.6,-286.12 v -239.16 c 0,-61.27 -11.7,-116.43 -35.3,-165.54 -23.5,-49.11 -55.5,-90.79 -96.1,-124.89 -40.6,-34.18 -87.3,-60.159 -139.9,-78.011 -52.8,-17.713 -108.9,-26.605 -168.8,-26.605 -136.7,0 -243.5,34.732 -320.4,104.406 -77,69.6 -115.4,166.23 -115.4,289.8 v 302.59 c 0,61.06 3.2,123.23 9.6,186.51 6.4,63.14 18.9,123.57 37.5,181.09 18.4,57.52 44.8,111.14 79,160.88 34.1,49.74 79,91.66 134.4,125.75 45.5,28.4 95.2,53.27 149.2,74.58 54,21.32 105.8,41.9 155.6,61.8 17,7.09 31.6,13.13 43.6,18.11 12.1,4.96 24.6,10.3 37.4,15.99 12.7,5.66 26.6,12.04 41.5,19.18 14.9,7.09 33.8,15.61 56.5,25.57 l 66,-153.23 c -42.6,-18.45 -76.7,-32.96 -102.2,-43.62 -25.7,-10.66 -47.3,-19.51 -65,-26.61 -17.8,-7.09 -33.8,-13.12 -48,-18.08 -14.2,-4.99 -30.5,-11.71 -49,-20.18 -59.7,-25.57 -109.4,-48.97 -149.2,-70.23 -39.8,-21.33 -73.2,-45.43 -100.1,-72.38 -27,-26.96 -47.7,-58.56 -61.8,-94.68 -14.3,-36.19 -25.6,-81.28 -34.2,-135.11 l 4.4,-8.54" /></g><g
         transform="scale(1.53953)"
         id="g30"><path
           id="path32"
           style="fill:#fff;fill-opacity:1;fill-rule:nonzero;stroke:none"
           d="m 16128.6,1502.86 c 0,42.22 -7.3,78.27 -21.9,107.95 -14.6,29.75 -33.6,53.85 -56.8,72.3 -23.2,18.51 -48.8,31.7 -76.7,39.62 -27.9,7.92 -55.1,11.95 -81.7,11.95 -27.9,0 -55.8,-4.03 -83.7,-11.95 -27.9,-7.92 -53.5,-21.11 -76.7,-39.62 -23.3,-18.45 -42.2,-42.55 -56.8,-72.3 -14.6,-29.68 -22,-65.73 -22,-107.95 v -221.89 c 0,-42.28 6.3,-78.27 19,-107.95 12.6,-29.75 29.6,-53.85 50.8,-72.36 21.2,-18.45 46.5,-31.7 75.7,-39.56 29.3,-7.99 60.4,-11.89 93.7,-11.89 26.6,0 53.8,3.9 81.7,11.89 27.9,7.86 53.5,21.11 76.7,39.56 23.2,18.51 42.2,42.61 56.8,72.36 14.6,29.68 21.9,65.67 21.9,107.95 z m 171.4,-256.38 c 0,-57.16 -11,-107.95 -33,-152.45 -21.9,-44.56 -51.9,-82.04 -89.9,-112.627 -37.9,-30.529 -81.6,-53.783 -130.8,-69.697 -49.3,-15.98 -101.9,-23.904 -157.8,-23.904 -57.3,0 -110.5,7.924 -159.8,23.904 -49.3,15.914 -92.2,39.168 -128.8,69.697 -36.7,30.587 -65.7,68.067 -87,112.627 -21.3,44.5 -31.9,95.29 -31.9,152.45 v 286.91 c 0,57.09 11,107.95 32.9,152.44 22,44.5 51.3,82.37 87.9,113.61 36.6,31.18 79.9,55.08 129.8,71.71 50,16.63 102.9,24.94 158.9,24.94 59.9,0 114.9,-8.31 164.8,-24.94 49.9,-16.63 93.2,-40.53 129.8,-71.71 36.6,-31.24 64.9,-69.11 84.9,-113.61 20,-44.49 30,-95.35 30,-152.44 v -286.91" /></g><g
         transform="scale(1.63608)"
         id="g34"><path
           id="path36"
           style="fill:#fff;fill-opacity:1;fill-rule:nonzero;stroke:none"
           d="m 16136.9,1126.05 c 0,41.19 -14.8,73.4 -44.3,96.57 -29.5,23.1 -62.5,34.65 -98.9,34.65 H 15715 V 987.299 h 261.8 c 56.5,0 97.3,12.163 122.4,36.551 25.1,24.39 37.7,58.43 37.7,102.2 z m -16.9,390.01 c 0,39.98 -15,69.01 -45,87.16 -30,18.1 -63.1,27.2 -99.4,27.2 H 15715 v -228.78 h 270 c 41.2,0 74.1,9.66 98.4,29.1 24.4,19.37 36.6,47.79 36.6,85.32 z m 180,-390.01 c 0,-33.74 -6.3,-67.54 -18.8,-101.28 -12.4,-33.741 -30.9,-64.059 -55.3,-90.952 -24.4,-26.894 -55,-48.47 -91.8,-64.667 -36.9,-16.26 -79.7,-24.387 -128.5,-24.387 h -451.9 V 1772.9 h 448.1 c 48.8,0 90.7,-6.85 125.7,-20.6 35,-13.76 64,-32.52 87.2,-56.23 23.1,-23.78 40.3,-50.98 51.6,-81.6 11.2,-30.62 16.8,-62.77 16.8,-96.57 0,-33.74 -8.7,-68.16 -26.3,-103.12 -17.4,-35.02 -45.5,-63.13 -84.3,-84.34 46.2,-21.33 79,-51.59 98.4,-90.95 19.4,-39.42 29.1,-77.2 29.1,-113.44" /></g><g
         transform="scale(1.73112)"
         id="g38"><path
           id="path40"
           style="fill:#fff;fill-opacity:1;fill-rule:nonzero;stroke:none"
           d="m 16147.6,1069.54 c 0,33.04 -12.4,63.48 -37.2,91.27 -24.8,27.73 -65.6,41.65 -122.3,41.65 h -228.6 V 933.094 h 228.6 c 50.8,0 90.1,11.495 117.9,34.545 27.7,23.048 41.6,56.951 41.6,101.901 z m -386.3,265.78 h 232.9 c 49.8,0 93.9,-6.82 132.4,-20.39 38.6,-13.58 70.6,-32.18 96.1,-55.81 25.4,-23.62 44.7,-51.7 57.7,-84.16 13.1,-32.52 19.6,-67.64 19.6,-105.42 0,-81.568 -26.3,-147.132 -79.1,-196.752 -52.7,-49.623 -128.8,-74.403 -228.2,-74.403 h -383.8 v 878.965 h 152.4 v -342.03" /></g><g
         transform="scale(1.84969)"
         id="g42"><path
           id="path44"
           style="fill:#fff;fill-opacity:1;fill-rule:nonzero;stroke:none"
           d="m 16157.4,1250.86 c 0,35.14 -5.3,65.14 -15.8,89.85 -10.5,24.76 -24.3,44.82 -41.5,60.17 -17.1,15.41 -36.5,26.38 -58,32.98 -21.6,6.59 -43.4,9.95 -65.5,9.95 -23.3,0 -45.6,-3.36 -67.2,-9.95 -21.5,-6.6 -40.9,-17.57 -58,-32.98 -17.2,-15.35 -31,-35.41 -41.5,-60.17 -10.5,-24.71 -15.8,-54.71 -15.8,-89.85 v -184.68 c 0,-71.473 16.4,-121.482 49,-150.082 32.6,-28.546 77.1,-42.818 133.5,-42.818 22.1,0 43.9,3.244 65.5,9.894 21.5,6.541 40.9,17.571 58,32.924 17.2,15.408 31,35.466 41.5,60.227 10.5,24.705 15.8,54.655 15.8,89.855 z m 142.6,-213.39 c 0,-47.576 -8.3,-89.853 -25,-126.886 -16.6,-37.088 -39.6,-68.282 -69,-93.745 -29.4,-25.409 -63.7,-44.764 -103.1,-58.01 -39.3,-13.3 -82.2,-19.895 -128.8,-19.895 -47.7,0 -91.2,6.595 -130.5,19.895 -39.4,13.246 -73.2,32.601 -101.5,58.01 -28.3,25.463 -50.4,56.657 -66.5,93.745 -16,37.033 -24.1,79.31 -24.1,126.886 v 59.68 h -121 V 747.206 h -142.7 v 820.944 h 142.7 v -343.3 h 121 v 51.42 c 0,47.52 8.1,89.85 24.1,126.88 16.1,37.04 38.8,68.55 68.2,94.56 29.4,25.95 63.7,45.84 103.1,59.68 39.3,13.84 82.3,20.76 128.9,20.76 100.8,0 180.1,-26.54 237.7,-79.63 57.7,-53.09 86.5,-127.16 86.5,-222.25 v -238.8" /></g><path
         id="path46"
         style="fill:#fff;fill-opacity:1;fill-rule:nonzero;stroke:none"
         d="m 13766.4,4926.42 c 317.9,620.73 455.1,1241.43 455.1,1665.55 0,2.97 -2.5,9.09 -1.9,12.28 0,4.63 1.9,8.52 1.9,12.62 0,425.36 -138.8,1043.48 -459.4,1663.12 -274.2,529.01 -627.7,847.25 -835.6,769.27 -208,-78.92 -227.8,-725.62 -226.8,-1063.56 0,-339.46 -5.6,-1382.94 -5.6,-1382.94 0,0 7.8,-1042.8 7.8,-1383.42 0.8,-338.77 21.3,-985.66 230.2,-1063.39 207.9,-78.06 562.4,240.93 834.3,770.47" /><path
         id="path48"
         style="fill:#fff;fill-opacity:1;fill-rule:nonzero;stroke:none"
         d="M 8986.63,3.69922 C 9684.38,37.6992 10289.3,230.5 10655.7,442.5 c 3.9,2.5 6.9,4.602 10.2,6.199 4.8,3 7.9,3.903 12.5,7.403 368.8,212 834.9,640.898 1210.5,1228.498 320.7,500.7 419.9,967.4 247,1107.5 -171.9,142.4 -739.8,-164.7 -1033,-335 -294.4,-169.9 -1201.19,-687.5 -1201.19,-687.5 0,0 -900.31,-529.3 -1193.69,-699.3 C 8414.27,900.102 7866.13,560.398 7902.29,340.199 7939.4,119.602 8392.28,-25.3984 8986.63,3.69922" /><path
         id="path50"
         style="fill:#fff;fill-opacity:1;fill-rule:nonzero;stroke:none"
         d="m 2330.71,1713 c 376.34,-587.5 843.53,-1017.199 1212.05,-1228.801 3.12,-2.199 7.2,-3.699 11.06,-5.5 3.98,-2 7.25,-5.597 11.08,-7.199 366.2,-212.898 972.11,-405 1668.26,-438.5 595.54,-29.30078 1047.58,117.199 1084.6,336.199 37.71,220 -511.86,560.703 -805.82,731.101 -293.81,168.9 -1193.99,697.9 -1193.99,697.9 0,0 -905.81,518.1 -1200.37,688.2 -293.1,170.2 -861.69,476.7 -1034.21,334.8 -172.55,-141.1 -74.2,-607 247.34,-1108.2" /><path
         id="path52"
         style="fill:#fff;fill-opacity:1;fill-rule:nonzero;stroke:none"
         d="M 456.738,8311.19 C 137.816,7691.17 0,7070.64 0,6647.69 c 0,-4.1 0.625,-9.48 0.625,-13.2 0,-5.2 -0.625,-8.91 -0.625,-12.8 0,-424.86 136.98,-1044.65 456.738,-1665.74 273.317,-528.26 627.692,-847.33 835.012,-768.5 208.74,78.89 228.35,723.93 228.35,1063.54 0,338.87 6.42,1382.4 6.42,1382.4 0,0 -7.28,1044.41 -6.42,1384.07 0,339.52 -19.61,985.36 -228.35,1063.45 -207.32,78.18 -561.695,-241.1 -835.012,-769.72" /><path
         id="path54"
         style="fill:#fff;fill-opacity:1;fill-rule:nonzero;stroke:none"
         d="m 5240.38,13242.9 c -697.25,-33.6 -1302.03,-222.6 -1669.89,-434.1 -2.38,-2 -7.11,-4.8 -9.42,-8.2 -5.59,-1.4 -10.4,-2.3 -13.43,-5.2 -367.09,-211.4 -836.56,-637.8 -1214.58,-1225 -323.89,-499.5 -423.13,-965.6 -251.24,-1106.7 172.47,-142.7 742.66,162.5 1035.76,331.3 294.56,169 1202.66,683.1 1202.66,683.1 0,0 901.12,527.2 1195.8,695.6 294.56,169.4 844.99,507.2 807.96,728.7 -36.25,219.2 -489.12,367.1 -1083.62,340.5" /><path
         id="path56"
         style="fill:#fff;fill-opacity:1;fill-rule:nonzero;stroke:none"
         d="m 11887.6,11571.3 c -379,587.1 -848.7,1012.7 -1216.3,1225.1 -3.2,2.8 -7.1,2.8 -11.7,5.7 -3.9,1.9 -5.6,4.7 -10.2,6.7 -367.7,211.5 -972.62,400.5 -1670.2,434.1 -595.66,25.9 -1047.67,-122.3 -1083.93,-341.4 -36.39,-221 514.27,-559.3 809.04,-727.8 293.07,-169.4 1195.08,-695.6 1195.08,-695.6 0,0 909.81,-514.1 1203.51,-682.7 293.8,-168.5 864.2,-474.4 1035,-331 172.5,141.2 71.7,606.5 -250.3,1106.9" /><path
         id="path58"
         style="fill:#fff;fill-opacity:1;fill-rule:nonzero;stroke:none"
         d="m 10669.6,3130 c 438.7,266.45 764.2,605.31 926.4,870.84 1.6,1.49 3.4,6.12 4,9.27 2.2,2.62 5.6,4.1 7,7.26 162.3,266.98 314.4,709.81 350.5,1220.82 32.5,438.73 -66.1,773.52 -228.3,805.34 -161.3,32.24 -421.4,-367.53 -553,-581.07 -129,-213.13 -535,-866.53 -535,-866.53 0,0 -396.7,-659.15 -526.8,-871.93 -129.79,-213.35 -366.22,-627 -265.31,-756.4 101.27,-131.7 446.51,-65.2 820.51,162.4" /><path
         id="path60"
         style="fill:#fff;fill-opacity:1;fill-rule:nonzero;stroke:none"
         d="M 5867.32,1777.9 C 6322.4,1539 6778.64,1434.2 7091.5,1432 l 8.68,0.5 c 3.33,0 7.22,-0.5 7.22,-0.5 315.92,-3.2 772.75,92.8 1232.14,326 390.74,196.8 627.77,456.2 572.8,610.2 -56.9,154.5 -532.69,172.8 -782.53,173.1 -249.66,3.4 -1019.23,15.3 -1019.23,15.3 0,0 -770.02,1.6 -1020.49,4.6 -249.68,0.8 -725.35,-9.3 -784.34,-162.7 -59.19,-152.2 174.72,-416.2 561.57,-620.6" /><path
         id="path62"
         style="fill:#fff;fill-opacity:1;fill-rule:nonzero;stroke:none"
         d="m 2287.21,5259.51 c 23.86,-513.38 164.62,-960.09 321.48,-1231.18 1.46,-2.44 3.98,-4.67 6.36,-6.34 0.62,-3.14 3.18,-6.5 3.18,-9.26 157.37,-271.83 473.35,-616.28 905.73,-894.63 369.4,-235.6 711.27,-308.1 815.89,-181.9 104.84,126 -121.17,545.3 -245.62,762.53 -126.96,215.94 -506.48,884.19 -506.48,884.19 0,0 -388.99,663.43 -514.24,879.54 -123.76,217.82 -375.85,622.76 -538.07,595.75 -160.72,-26.09 -269.3,-360.77 -248.23,-798.7" /><path
         id="path64"
         style="fill:#fff;fill-opacity:1;fill-rule:nonzero;stroke:none"
         d="m 3540.39,10143.9 c -434.76,-271.54 -756.86,-611.06 -917.47,-879.26 -0.83,-2.97 -2.34,-5.86 -3.14,-8.21 -1.55,-3.86 -4.73,-5.58 -4.73,-7.9 -161.5,-269.66 -309.54,-712.94 -341.09,-1225.51 -28.5,-438.05 75.65,-773.65 237.09,-801.88 161.56,-30.36 418.14,370.9 546.68,585.8 128.34,213.4 526.07,872.83 526.07,872.83 0,0 390.75,661.8 519.85,876.78 128.43,214.66 359.19,630.65 256.02,759.25 -101.53,128.4 -444.94,59.7 -819.28,-171.9" /><path
         id="path66"
         style="fill:#fff;fill-opacity:1;fill-rule:nonzero;stroke:none"
         d="m 8341.97,11506 c -458.58,233 -915.59,332.2 -1229.2,329.8 -2.19,0 -6.3,-1.4 -6.3,-1.4 -7.04,0.6 -9.47,2.3 -12.62,1.4 -312.81,-1.4 -769.01,-105.3 -1225.19,-343.9 -388.19,-204.1 -622.1,-464.9 -562.91,-619.3 58.99,-152.7 533.82,-164.9 786.07,-164.1 248.74,2 1018.76,3.5 1018.76,3.5 0,0 767.99,7.9 1019.23,9.8 249.84,1.8 725.63,18.6 782.53,173 55.89,153.5 -180.46,411.7 -570.37,611.2" /><path
         id="path68"
         style="fill:#fff;fill-opacity:1;fill-rule:nonzero;stroke:none"
         d="m 11947.3,8024.5 c -31.5,512.76 -180.4,957.07 -340.3,1224.83 -1.4,3.24 -3.8,5.38 -5.5,8.47 -1.5,1.55 -3,4.94 -3.9,7.73 -160.7,267.31 -482.8,608.4 -919.2,879.37 -372.7,232.3 -715.95,299.3 -819.3,170.9 -101.35,-128.6 130.92,-544.59 257.7,-758.6 129.8,-214.27 520.8,-876.6 520.8,-876.6 0,0 398.5,-658.42 526.8,-871.97 127.6,-215.1 385,-616.19 545.9,-586 162.8,28.32 265.5,363.82 237,801.87" /><g
         transform="scale(1.18424)"
         id="g70"><path
           id="path72"
           style="fill:#fff;fill-opacity:1;fill-rule:nonzero;stroke:none"
           d="m 14796,8583.45 c 192.4,0 376,-20.42 552.4,-61.28 175.7,-41.32 331.5,-107.29 466.2,-200.1 135.3,-91.35 242.4,-210.81 322.6,-358.61 80.1,-147.67 119.6,-327.26 119.6,-540.54 0,-204.61 -51.9,-386.62 -156.2,-546.13 -104.6,-159.46 -244.9,-280.56 -420.7,-361.8 204.8,-78.63 359.3,-200.78 463.2,-369.04 104.9,-167.25 156.9,-351.54 156.9,-551.97 0,-233.26 -44.2,-433.37 -131.6,-599.11 -88.5,-165.62 -204.9,-302.8 -350.7,-410.8 -144.9,-108.5 -312.5,-187.33 -502.8,-236.22 -190.8,-49.34 -390.2,-73.77 -599,-73.77 -143.3,0 -284.4,9.08 -423.6,27.48 -139.2,18.41 -273.1,46.29 -401.8,82.88 -129.1,36.95 -248.9,82.18 -359.4,135.18 -110.1,52.98 -207,114.63 -288.5,183.79 l 435.9,620.35 c 61.5,-49.11 133,-93.49 215.1,-131.63 81.7,-39.68 167.9,-71.52 257.5,-95.85 90.2,-24.79 179.4,-44.02 267.4,-57.72 87.9,-15 166.3,-22.09 236.5,-22.09 261.2,0 461,54.19 598.3,162.58 136.7,108.59 205.9,253.06 205.9,433.11 0,184.25 -64.2,322.15 -190.5,414.47 -127,92.44 -294.9,138.36 -503.9,138.36 h -564.5 v 663.19 h 540.7 c 89.9,0 174.2,11.67 254.4,36.82 80.2,24.45 150.1,59.76 211.7,104.47 61.6,45.56 110.7,102.96 147.2,172.95 37.1,70.02 55.8,148.06 55.8,235.04 0,90.67 -21.1,166.44 -61.7,228.17 -40.9,62.46 -94.1,111.94 -159.9,151.25 -65.5,38.82 -140.1,67.26 -223.7,83.56 -84.3,16.41 -170.6,24.79 -260.9,24.79 -139.2,0 -293,-25.61 -460.7,-76.85 -167.8,-51.22 -310.9,-128.08 -429.6,-230.31 l -411.1,599.44 c 175.8,137.55 381.9,243.2 619.9,316.28 236.7,72.71 495.3,109.66 773.6,109.66" /></g><g
         transform="scale(1.52991)"
         id="g74"><path
           id="path76"
           style="fill:#fff;fill-opacity:1;fill-rule:nonzero;stroke:none"
           d="m 14380,6040.72 -38.3,-784.27 c -6.1,-139.61 -14.1,-271.58 -23.3,-396.49 -9.8,-124.99 -23.9,-244.15 -43,-356.55 -19.1,-112.47 -45.7,-218.58 -80.8,-318.35 -34.7,-100.16 -82.3,-191.25 -142.5,-273.4 h 1316.3 V 6040.72 Z M 13301.3,3916.5 c 72.6,53.82 134.4,117.69 185.3,192.16 50.8,74.57 92.5,165.49 126.1,273.5 33,107.64 59,233.65 78.5,378.02 18.7,144.1 33,314.16 42.6,510.52 l 61.7,1344.8 H 16010 c 0,-452.79 0.8,-903.46 2.3,-1351.74 1.7,-448.2 2.3,-898.59 2.3,-1352.1 H 16300 V 2896.63 h -594.2 v 445.2 h -2052.4 v -445.2 H 13059 V 3916.5 h 242.3" /></g><g
         transform="scale(1.81541)"
         id="g78"><path
           id="path80"
           style="fill:#fff;fill-opacity:1;fill-rule:nonzero;stroke:none"
           d="m 15750.9,4598.19 c 0,90.71 -14.6,167.33 -43.8,230.42 -29.7,62.44 -68.2,113.74 -116.4,153.99 -48.3,40.21 -102.2,69.24 -162,88.41 -60.4,18.19 -122.2,27.43 -186.5,27.43 -63.9,0 -126.7,-9.24 -188.3,-27.43 -61.2,-19.17 -116.2,-48.2 -164.2,-88.41 -47.6,-40.25 -86.8,-91.55 -116.3,-153.99 -29,-63.09 -43.6,-139.71 -43.6,-230.42 v -805.01 c 0,-90.49 14.6,-168.34 43.6,-232.17 29.5,-64.08 68.7,-116.36 116.3,-156.33 48,-40.04 103,-69.01 164.2,-86.17 61.6,-17.32 124.4,-26.12 188.3,-26.12 64.3,0 126.1,8.8 186.5,26.12 59.8,17.16 113.7,46.13 162,86.17 48.2,39.97 86.7,92.25 116.4,156.33 29.2,63.83 43.8,141.68 43.8,232.17 z m 549.1,-901.12 c 0,-149.7 -28.3,-280.47 -84.1,-392.67 -56.2,-111.95 -132.2,-206.76 -228.2,-284.06 -95.7,-77.49 -208.4,-135.39 -337.8,-174.35 -129.1,-38.73 -265.7,-57.89 -409.6,-57.89 -144,0 -280.7,19.16 -410,57.89 -129.1,38.96 -241.7,96.86 -337.5,174.35 -96,77.3 -172.1,172.11 -227.7,284.06 -56.3,112.2 -84.2,242.97 -84.2,392.67 v 1013.17 c 0,146.55 29.3,276.22 88.2,388.2 58.6,112.41 137.1,205.74 235.8,280.3 98.3,74.92 211.8,130.98 339.7,168.25 128.2,37.65 259.7,56.06 395.7,56.06 135.8,0 267.8,-20.25 395.6,-59.9 128.1,-39.82 241,-97.95 339.8,-174.04 98.7,-76.47 177.5,-171.04 236,-284.7 58.7,-113.11 88.3,-243.49 88.3,-390.1 v -997.24" /></g><g
         transform="scale(2.10001)"
         id="g82"><path
           id="path84"
           style="fill:#fff;fill-opacity:1;fill-rule:nonzero;stroke:none"
           d="m 15025.4,3756.54 h 485.2 c 108.6,0 190.4,30.37 245.8,90.67 55.4,60.38 83,136.01 83,226.35 0,92.85 -28.3,169.34 -84.8,229.87 -56.5,60.44 -138.1,90.34 -244,90.34 h -485.2 z m 592.5,1063 c 117.9,0 219.2,-22.63 304.4,-67.57 85.6,-44.73 156.4,-103.25 212.9,-174.61 56.6,-71.5 98.4,-151.97 124.9,-240.71 26.6,-88.95 39.9,-175.96 39.9,-261.22 0,-87.74 -15.7,-175.68 -46.7,-263.03 -31.2,-87.95 -76.2,-167.49 -134.9,-239.05 -58.9,-71.63 -131.6,-129.88 -218.3,-174.81 -86.6,-45.2 -185.4,-67.37 -296,-67.37 h -578.7 V 2434.6 h -474.1 v 2384.94 h 1066.6" /></g><g
         transform="scale(2.37475)"
         id="g86"><path
           id="path88"
           style="fill:#fff;fill-opacity:1;fill-rule:nonzero;stroke:none"
           d="m 15880.6,3515.15 c 0,69.34 -11.2,127.91 -33.7,176.14 -22.6,47.74 -51.9,86.95 -88.7,117.72 -36.7,30.74 -78.1,52.93 -124.1,67.59 -46,13.9 -93.5,20.97 -142.2,20.97 -49.1,0 -97,-7.07 -143.9,-20.97 -47,-14.66 -89.1,-36.85 -125.8,-67.59 -36.6,-30.77 -66,-69.98 -88.6,-117.72 -22.4,-48.23 -33.6,-106.8 -33.6,-176.14 v -615.41 c 0,-69.17 11.2,-128.68 33.6,-177.48 22.6,-48.99 52,-88.95 88.6,-119.51 36.7,-30.61 78.8,-52.75 125.8,-65.87 46.9,-13.25 94.8,-19.97 143.9,-19.97 48.7,0 96.2,6.72 142.2,19.97 46,13.12 87.4,35.26 124.1,65.87 36.8,30.56 66.1,70.52 88.7,119.51 22.5,48.8 33.7,108.31 33.7,177.48 z m 419.4,-688.88 c 0,-114.44 -21.7,-214.41 -64,-300.18 -42.9,-85.58 -100.9,-158.06 -174.4,-217.16 -73.4,-59.23 -159.3,-103.49 -258.2,-133.27 -98.7,-29.61 -203.2,-44.27 -313.2,-44.27 -109.8,0 -214.2,14.66 -313.2,44.27 -98.8,29.78 -184.9,74.04 -258.2,133.27 -73.3,59.1 -131.5,131.58 -174.2,217.16 -42.7,85.77 -64.3,185.74 -64.3,300.18 v 774.53 c 0,112.03 22.5,211.16 67.2,296.77 45.1,85.93 105.1,157.27 180.3,214.27 75.4,57.28 162.2,100.13 259.8,128.63 97.7,28.78 198.6,42.85 302.6,42.85 103.9,0 204.9,-15.48 302.7,-45.79 97.7,-30.44 184.5,-74.88 259.7,-133.05 75.3,-58.45 135.4,-130.75 180.4,-217.64 44.4,-86.47 67,-186.14 67,-298.22 v -762.35" /></g><g
         transform="scale(2.66733)"
         id="g90"><path
           id="path92"
           style="fill:#fff;fill-opacity:1;fill-rule:nonzero;stroke:none"
           d="m 15905,2487.48 c 0,72.4 -23,130.67 -68.3,175.01 -45.5,44.24 -108,66.19 -188.1,66.19 h -398 v -477.04 h 400.6 c 83.8,0 146.9,21.28 189.6,63.84 42.6,42.61 64.2,99.58 64.2,172 z m -22.1,759.18 c 0,69.24 -20.5,121.87 -61.1,158.19 -41,36.43 -104.9,54.41 -192.4,54.41 h -378.8 v -411.48 h 384.4 c 77.9,0 139.1,18.33 182.5,54.39 43.7,36.49 65.4,84.6 65.4,144.49 z M 16300,2474.6 c 0,-76.26 -11.8,-148.01 -35.3,-215.09 -23.6,-67.1 -58.2,-125.9 -103.6,-177 -45.4,-50.79 -101.5,-91.04 -168.9,-120.92 -67.3,-30.13 -145.6,-44.8 -234.4,-44.8 h -880.5 v 1877.69 h 845.1 c 94.3,0 175.7,-13.58 243.6,-40.78 68.4,-27.41 124.6,-64.57 169.3,-111.85 44.4,-47.65 77.6,-102.25 99.4,-164.15 21.8,-61.75 32.6,-126.36 32.6,-193.76 0,-69.08 -18.4,-140.2 -55.8,-212.8 -37.3,-72.84 -95.8,-129.46 -175.8,-169.55 45.5,-21.8 84.6,-49.37 117.2,-82.81 32.9,-33.7 60,-70.01 81.8,-108.69 21.8,-39.26 38.2,-79.2 48.8,-120.03 11.2,-40.66 16.5,-79.34 16.5,-115.46" /></g><g
         transform="scale(2.80491)"
         id="g94"><path
           id="path96"
           style="fill:#fff;fill-opacity:1;fill-rule:nonzero;stroke:none"
           d="m 16089.9,3393.39 c 0,13.26 -4.1,23.93 -12.2,32.09 -8.1,8.08 -19.1,12.17 -33.1,12.17 h -64.5 v -88.07 h 64.5 c 14,0 25,3.99 33.1,11.96 8.1,8.02 12.2,18.64 12.2,31.85 z m -34.9,86.47 c 14.2,0 26.4,-2.58 36.5,-7.77 10.1,-5.18 18.4,-11.97 25,-20.28 6.6,-8.33 11.4,-17.65 14.5,-27.87 3.2,-10.27 4.7,-20.43 4.7,-30.55 0,-7.63 -1,-15.35 -3.2,-23.12 -2.2,-7.83 -5.3,-15.15 -9.4,-22.14 -4.1,-6.92 -9.1,-13.25 -15,-18.83 -5.9,-5.64 -12.6,-10.18 -20.3,-13.72 l 51.7,-118.01 h -50.9 l -46.4,109.8 h -62.1 v -109.8 h -46.7 v 282.29 z m -23.9,128.94 c -146.7,0 -268.9,-119.07 -268.9,-271.63 0,-152.26 122.2,-270.25 268.9,-270.25 146.4,0 268.9,117.99 268.9,270.25 0,152.56 -122.5,271.63 -268.9,271.63" /></g></g></g></svg>